<svg width="20" height="19" viewBox="0 0 20 19" fill="none" xmlns="http://www.w3.org/2000/svg">
<path d="M10 3.06714L11.875 6.85357L12.1875 7.53214L12.8668 7.63393L17.0516 8.23786L14.0761 11.1557L13.5666 11.6511L13.6889 12.3296L14.4022 16.4893L10.659 14.5282L10 14.25L9.36821 14.5825L5.625 16.5164L6.30435 12.3568L6.42663 11.6782L5.92391 11.1557L2.9212 8.20393L7.10598 7.6L7.78533 7.49821L8.09783 6.81964L10 3.06714ZM10 0L6.90897 6.25643L0 7.25393L5 12.1261L3.81793 19L10 15.7564L16.1821 19L15 12.1261L20 7.26071L13.091 6.25643L10 0Z" fill="#B8C1CA"/>
</svg>
